<?xml version="1.0" encoding="utf-8"?>
<!-- Generator: Adobe Illustrator 16.0.0, SVG Export Plug-In . SVG Version: 6.00 Build 0)  -->
<!DOCTYPE svg PUBLIC "-//W3C//DTD SVG 1.1//EN" "http://www.w3.org/Graphics/SVG/1.1/DTD/svg11.dtd">
<svg version="1.1" id="Layer_1" xmlns="http://www.w3.org/2000/svg" xmlns:xlink="http://www.w3.org/1999/xlink" x="0px" y="0px"
	 width="81px" height="81px" viewBox="0 0 81 81" enable-background="new 0 0 81 81" xml:space="preserve">
<g>
	<g>
		<path fill="none" d="M21.139,34.334H7.333v41.358c0,0.925,0.221,1.642,1.146,1.642h43.562c0.924,0,1.292-0.717,1.292-1.642v-1.054
			v-3.733v-36.57H24.249H21.139z M39.057,40.334h8.097c0.925,0,1.676,0.574,1.676,1.5c0,0.925-0.751,1.5-1.676,1.5h-8.097
			c-0.927,0-1.677-0.575-1.677-1.5C37.38,40.908,38.13,40.334,39.057,40.334z M33.471,41.834c0,0.925-0.749,1.5-1.676,1.5h-7.546
			h-3.11h-7.351c-0.926,0-1.677-0.575-1.677-1.5c0-0.926,0.751-1.5,1.677-1.5h7.351h3.11h7.546
			C32.722,40.334,33.471,40.908,33.471,41.834z"/>
		<path fill="none" d="M5.126,34.194c-0.225,0-0.439-0.039-0.637-0.109C4.673,34.155,4.884,34.194,5.126,34.194z"/>
		<path fill="none" d="M62.07,71.334c0.615,0,2.263-0.699,2.263-1.315V69.66v-3.351V14.705v-3.351v-0.36
			c0-0.615-1.647-1.66-2.263-1.66h-3.737v62H62.07z"/>
		<path fill="none" d="M67.333,66.334h2.737c0.388,0,1.263-0.353,1.263-0.739V15.42c0-0.388-0.875-0.086-1.263-0.086h-2.737v50.975
			V66.334z"/>
		<path fill="#FFFFFF" d="M70.07,11.334h-2.737v0.02v3.351v0.629h2.737c0.388,0,1.263-0.302,1.263,0.086v50.175
			c0,0.386-0.875,0.739-1.263,0.739h-2.737v3h2.737c2.241,0,5.263-1.497,5.263-3.739V15.42
			C75.333,13.178,72.312,11.334,70.07,11.334z"/>
		<path fill="#FFFFFF" d="M67.333,66.309V14.905v-0.201v-3.351v-0.182v-0.178c0-2.474-2.788-4.66-5.263-4.66h-3.737v3h3.737
			c0.615,0,2.263,1.045,2.263,1.66v0.36v3.351v51.604v3.351v0.359c0,0.616-1.647,1.315-2.263,1.315h-3.737v4h3.737
			c2.475,0,5.263-2.84,5.263-5.315V69.66v-3.111V66.309z"/>
	</g>
	<g>
		<g>
			<path fill="#FFFFFF" d="M52.563,80.628H9.002c-2.771,0-5.027-2.255-5.027-5.027V5.23c0-2.771,2.256-5.026,5.027-5.026h43.562
				c2.772,0,5.028,2.255,5.028,5.026v70.371C57.592,78.373,55.336,80.628,52.563,80.628z M9.002,3.555
				c-0.925,0-1.677,0.752-1.677,1.676v70.371c0,0.925,0.752,1.676,1.677,1.676h43.562c0.924,0,1.676-0.751,1.676-1.676V5.23
				c0-0.924-0.752-1.676-1.676-1.676H9.002z"/>
		</g>
		<g>
			<path fill="#FFFFFF" d="M55.09,34.331H6.458c-0.911,0-1.65-0.75-1.65-1.675c0-0.925,0.739-1.675,1.65-1.675H55.09
				c0.912,0,1.649,0.75,1.649,1.675C56.739,33.581,56.002,34.331,55.09,34.331z"/>
		</g>
		<g>
			<path fill="#FFFFFF" d="M32.319,42.99H14.312c-0.927,0-1.676-0.751-1.676-1.677c0-0.925,0.749-1.675,1.676-1.675h18.008
				c0.926,0,1.676,0.75,1.676,1.675C33.995,42.239,33.245,42.99,32.319,42.99z"/>
		</g>
		<g>
			<path fill="#FFFFFF" d="M47.678,42.99h-8.1c-0.925,0-1.674-0.75-1.674-1.675c0-0.926,0.749-1.676,1.674-1.676h8.1
				c0.925,0,1.674,0.75,1.674,1.676C49.352,42.239,48.603,42.99,47.678,42.99z"/>
		</g>
	</g>
</g>
</svg>
